<svg xmlns="http://www.w3.org/2000/svg" xmlns:xlink="http://www.w3.org/1999/xlink" width="745" zoomAndPan="magnify" viewBox="0 0 558.75 143.249994" height="191" preserveAspectRatio="xMidYMid meet" version="1.0"><defs><g/></defs><g fill="#ff00ff" fill-opacity="1"><g transform="translate(47.993675, 75.141933)"><g><path d="M 0 -42.953125 L 12.28125 -42.953125 L 12.28125 -24.53125 L 30.671875 -24.53125 L 30.671875 -42.953125 L 42.953125 -42.953125 L 42.953125 0 L 30.671875 0 L 30.671875 -18.390625 L 12.28125 -18.390625 L 12.28125 0 L 0 0 Z M 0 -42.953125 "/></g></g></g><g fill="#ff00ff" fill-opacity="1"><g transform="translate(101.345677, 75.141933)"><g><path d="M 12.28125 -6.140625 L 36.8125 -6.140625 L 36.8125 0 L 0 0 L 0 -42.953125 L 36.8125 -42.953125 L 36.8125 -36.8125 L 12.28125 -36.8125 L 12.28125 -24.53125 L 30.671875 -24.53125 L 30.671875 -18.390625 L 12.28125 -18.390625 Z M 12.28125 -6.140625 "/></g></g></g><g fill="#ff00ff" fill-opacity="1"><g transform="translate(148.587848, 75.141933)"><g><path d="M 24.5625 0 L 12.28125 0 L 12.28125 -24.53125 L 6.140625 -24.53125 L 6.140625 -30.671875 L 0 -30.671875 L 0 -42.953125 L 12.28125 -42.953125 L 12.28125 -30.671875 L 24.5625 -30.671875 L 24.5625 -42.953125 L 36.8125 -42.953125 L 36.8125 -30.671875 L 30.671875 -30.671875 L 30.671875 -24.53125 L 24.5625 -24.53125 Z M 24.5625 0 "/></g></g></g><g fill="#ff00ff" fill-opacity="1"><g transform="translate(195.830019, 75.141933)"><g><path d="M 0 -12.28125 L 12.28125 -12.28125 L 12.28125 0 L 6.140625 0 L 6.140625 6.140625 L 0 6.140625 Z M 0 -12.28125 "/></g></g></g><g fill="#ff00ff" fill-opacity="1"><g transform="translate(218.513065, 75.141933)"><g/></g></g><g fill="#ff00ff" fill-opacity="1"><g transform="translate(241.196112, 75.141933)"><g><path d="M 0 -42.953125 L 12.28125 -42.953125 L 12.28125 0 L 0 0 Z M 0 -42.953125 "/></g></g></g><g fill="#ff00ff" fill-opacity="1"><g transform="translate(263.879159, 75.141933)"><g><path d="M 0 -42.953125 L 12.28125 -42.953125 L 12.28125 -30.671875 L 6.140625 -30.671875 L 6.140625 -24.53125 L 0 -24.53125 Z M 0 -42.953125 "/></g></g></g><g fill="#ff00ff" fill-opacity="1"><g transform="translate(286.562205, 75.141933)"><g><path d="M 30.671875 -24.53125 L 30.671875 -42.953125 L 49.0625 -42.953125 L 49.0625 0 L 36.78125 0 L 36.78125 -18.390625 L 30.671875 -18.390625 L 30.671875 0 L 18.390625 0 L 18.390625 -18.390625 L 12.28125 -18.390625 L 12.28125 0 L 0 0 L 0 -42.953125 L 18.390625 -42.953125 L 18.390625 -24.53125 Z M 30.671875 -24.53125 "/></g></g></g><g fill="#ff00ff" fill-opacity="1"><g transform="translate(346.053988, 75.141933)"><g/></g></g><g fill="#ff00ff" fill-opacity="1"><g transform="translate(368.737035, 75.141933)"><g><path d="M 12.28125 -6.140625 L 36.8125 -6.140625 L 36.8125 0 L 0 0 L 0 -42.953125 L 36.8125 -42.953125 L 36.8125 -36.8125 L 12.28125 -36.8125 L 12.28125 -24.53125 L 30.671875 -24.53125 L 30.671875 -18.390625 L 12.28125 -18.390625 Z M 12.28125 -6.140625 "/></g></g></g><g fill="#ff00ff" fill-opacity="1"><g transform="translate(415.979206, 75.141933)"><g><path d="M 18.390625 -30.671875 L 18.390625 -12.28125 L 24.53125 -12.28125 L 24.53125 -30.671875 L 30.671875 -30.671875 L 30.671875 -42.953125 L 42.953125 -42.953125 L 42.953125 -30.671875 L 36.8125 -30.671875 L 36.8125 -12.28125 L 30.671875 -12.28125 L 30.671875 0 L 12.28125 0 L 12.28125 -12.28125 L 6.140625 -12.28125 L 6.140625 -30.671875 L 0 -30.671875 L 0 -42.953125 L 12.28125 -42.953125 L 12.28125 -30.671875 Z M 18.390625 -30.671875 "/></g></g></g><g fill="#ff00ff" fill-opacity="1"><g transform="translate(469.331208, 75.141933)"><g><path d="M 12.28125 -6.140625 L 36.8125 -6.140625 L 36.8125 0 L 0 0 L 0 -42.953125 L 36.8125 -42.953125 L 36.8125 -36.8125 L 12.28125 -36.8125 L 12.28125 -24.53125 L 30.671875 -24.53125 L 30.671875 -18.390625 L 12.28125 -18.390625 Z M 12.28125 -6.140625 "/></g></g></g><g fill="#00ffff" fill-opacity="1"><g transform="translate(45.693502, 75.141933)"><g><path d="M 0 -42.953125 L 12.28125 -42.953125 L 12.28125 -24.53125 L 30.671875 -24.53125 L 30.671875 -42.953125 L 42.953125 -42.953125 L 42.953125 0 L 30.671875 0 L 30.671875 -18.390625 L 12.28125 -18.390625 L 12.28125 0 L 0 0 Z M 0 -42.953125 "/></g></g></g><g fill="#00ffff" fill-opacity="1"><g transform="translate(99.045504, 75.141933)"><g><path d="M 12.28125 -6.140625 L 36.8125 -6.140625 L 36.8125 0 L 0 0 L 0 -42.953125 L 36.8125 -42.953125 L 36.8125 -36.8125 L 12.28125 -36.8125 L 12.28125 -24.53125 L 30.671875 -24.53125 L 30.671875 -18.390625 L 12.28125 -18.390625 Z M 12.28125 -6.140625 "/></g></g></g><g fill="#00ffff" fill-opacity="1"><g transform="translate(146.287675, 75.141933)"><g><path d="M 24.5625 0 L 12.28125 0 L 12.28125 -24.53125 L 6.140625 -24.53125 L 6.140625 -30.671875 L 0 -30.671875 L 0 -42.953125 L 12.28125 -42.953125 L 12.28125 -30.671875 L 24.5625 -30.671875 L 24.5625 -42.953125 L 36.8125 -42.953125 L 36.8125 -30.671875 L 30.671875 -30.671875 L 30.671875 -24.53125 L 24.5625 -24.53125 Z M 24.5625 0 "/></g></g></g><g fill="#00ffff" fill-opacity="1"><g transform="translate(193.529846, 75.141933)"><g><path d="M 0 -12.28125 L 12.28125 -12.28125 L 12.28125 0 L 6.140625 0 L 6.140625 6.140625 L 0 6.140625 Z M 0 -12.28125 "/></g></g></g><g fill="#00ffff" fill-opacity="1"><g transform="translate(216.212893, 75.141933)"><g/></g></g><g fill="#00ffff" fill-opacity="1"><g transform="translate(238.895939, 75.141933)"><g><path d="M 0 -42.953125 L 12.28125 -42.953125 L 12.28125 0 L 0 0 Z M 0 -42.953125 "/></g></g></g><g fill="#00ffff" fill-opacity="1"><g transform="translate(261.578986, 75.141933)"><g><path d="M 0 -42.953125 L 12.28125 -42.953125 L 12.28125 -30.671875 L 6.140625 -30.671875 L 6.140625 -24.53125 L 0 -24.53125 Z M 0 -42.953125 "/></g></g></g><g fill="#00ffff" fill-opacity="1"><g transform="translate(284.262033, 75.141933)"><g><path d="M 30.671875 -24.53125 L 30.671875 -42.953125 L 49.0625 -42.953125 L 49.0625 0 L 36.78125 0 L 36.78125 -18.390625 L 30.671875 -18.390625 L 30.671875 0 L 18.390625 0 L 18.390625 -18.390625 L 12.28125 -18.390625 L 12.28125 0 L 0 0 L 0 -42.953125 L 18.390625 -42.953125 L 18.390625 -24.53125 Z M 30.671875 -24.53125 "/></g></g></g><g fill="#00ffff" fill-opacity="1"><g transform="translate(343.753816, 75.141933)"><g/></g></g><g fill="#00ffff" fill-opacity="1"><g transform="translate(366.436862, 75.141933)"><g><path d="M 12.28125 -6.140625 L 36.8125 -6.140625 L 36.8125 0 L 0 0 L 0 -42.953125 L 36.8125 -42.953125 L 36.8125 -36.8125 L 12.28125 -36.8125 L 12.28125 -24.53125 L 30.671875 -24.53125 L 30.671875 -18.390625 L 12.28125 -18.390625 Z M 12.28125 -6.140625 "/></g></g></g><g fill="#00ffff" fill-opacity="1"><g transform="translate(413.679033, 75.141933)"><g><path d="M 18.390625 -30.671875 L 18.390625 -12.28125 L 24.53125 -12.28125 L 24.53125 -30.671875 L 30.671875 -30.671875 L 30.671875 -42.953125 L 42.953125 -42.953125 L 42.953125 -30.671875 L 36.8125 -30.671875 L 36.8125 -12.28125 L 30.671875 -12.28125 L 30.671875 0 L 12.28125 0 L 12.28125 -12.28125 L 6.140625 -12.28125 L 6.140625 -30.671875 L 0 -30.671875 L 0 -42.953125 L 12.28125 -42.953125 L 12.28125 -30.671875 Z M 18.390625 -30.671875 "/></g></g></g><g fill="#00ffff" fill-opacity="1"><g transform="translate(467.031035, 75.141933)"><g><path d="M 12.28125 -6.140625 L 36.8125 -6.140625 L 36.8125 0 L 0 0 L 0 -42.953125 L 36.8125 -42.953125 L 36.8125 -36.8125 L 12.28125 -36.8125 L 12.28125 -24.53125 L 30.671875 -24.53125 L 30.671875 -18.390625 L 12.28125 -18.390625 Z M 12.28125 -6.140625 "/></g></g></g><g fill="#c67de0" fill-opacity="1"><g transform="translate(46.843589, 75.141933)"><g><path d="M 0 -42.953125 L 12.28125 -42.953125 L 12.28125 -24.53125 L 30.671875 -24.53125 L 30.671875 -42.953125 L 42.953125 -42.953125 L 42.953125 0 L 30.671875 0 L 30.671875 -18.390625 L 12.28125 -18.390625 L 12.28125 0 L 0 0 Z M 0 -42.953125 "/></g></g></g><g fill="#c67de0" fill-opacity="1"><g transform="translate(100.195591, 75.141933)"><g><path d="M 12.28125 -6.140625 L 36.8125 -6.140625 L 36.8125 0 L 0 0 L 0 -42.953125 L 36.8125 -42.953125 L 36.8125 -36.8125 L 12.28125 -36.8125 L 12.28125 -24.53125 L 30.671875 -24.53125 L 30.671875 -18.390625 L 12.28125 -18.390625 Z M 12.28125 -6.140625 "/></g></g></g><g fill="#c67de0" fill-opacity="1"><g transform="translate(147.437761, 75.141933)"><g><path d="M 24.5625 0 L 12.28125 0 L 12.28125 -24.53125 L 6.140625 -24.53125 L 6.140625 -30.671875 L 0 -30.671875 L 0 -42.953125 L 12.28125 -42.953125 L 12.28125 -30.671875 L 24.5625 -30.671875 L 24.5625 -42.953125 L 36.8125 -42.953125 L 36.8125 -30.671875 L 30.671875 -30.671875 L 30.671875 -24.53125 L 24.5625 -24.53125 Z M 24.5625 0 "/></g></g></g><g fill="#c67de0" fill-opacity="1"><g transform="translate(194.679932, 75.141933)"><g><path d="M 0 -12.28125 L 12.28125 -12.28125 L 12.28125 0 L 6.140625 0 L 6.140625 6.140625 L 0 6.140625 Z M 0 -12.28125 "/></g></g></g><g fill="#c67de0" fill-opacity="1"><g transform="translate(217.362979, 75.141933)"><g/></g></g><g fill="#c67de0" fill-opacity="1"><g transform="translate(240.046026, 75.141933)"><g><path d="M 0 -42.953125 L 12.28125 -42.953125 L 12.28125 0 L 0 0 Z M 0 -42.953125 "/></g></g></g><g fill="#c67de0" fill-opacity="1"><g transform="translate(262.729072, 75.141933)"><g><path d="M 0 -42.953125 L 12.28125 -42.953125 L 12.28125 -30.671875 L 6.140625 -30.671875 L 6.140625 -24.53125 L 0 -24.53125 Z M 0 -42.953125 "/></g></g></g><g fill="#c67de0" fill-opacity="1"><g transform="translate(285.412119, 75.141933)"><g><path d="M 30.671875 -24.53125 L 30.671875 -42.953125 L 49.0625 -42.953125 L 49.0625 0 L 36.78125 0 L 36.78125 -18.390625 L 30.671875 -18.390625 L 30.671875 0 L 18.390625 0 L 18.390625 -18.390625 L 12.28125 -18.390625 L 12.28125 0 L 0 0 L 0 -42.953125 L 18.390625 -42.953125 L 18.390625 -24.53125 Z M 30.671875 -24.53125 "/></g></g></g><g fill="#c67de0" fill-opacity="1"><g transform="translate(344.903902, 75.141933)"><g/></g></g><g fill="#c67de0" fill-opacity="1"><g transform="translate(367.586949, 75.141933)"><g><path d="M 12.28125 -6.140625 L 36.8125 -6.140625 L 36.8125 0 L 0 0 L 0 -42.953125 L 36.8125 -42.953125 L 36.8125 -36.8125 L 12.28125 -36.8125 L 12.28125 -24.53125 L 30.671875 -24.53125 L 30.671875 -18.390625 L 12.28125 -18.390625 Z M 12.28125 -6.140625 "/></g></g></g><g fill="#c67de0" fill-opacity="1"><g transform="translate(414.829119, 75.141933)"><g><path d="M 18.390625 -30.671875 L 18.390625 -12.28125 L 24.53125 -12.28125 L 24.53125 -30.671875 L 30.671875 -30.671875 L 30.671875 -42.953125 L 42.953125 -42.953125 L 42.953125 -30.671875 L 36.8125 -30.671875 L 36.8125 -12.28125 L 30.671875 -12.28125 L 30.671875 0 L 12.28125 0 L 12.28125 -12.28125 L 6.140625 -12.28125 L 6.140625 -30.671875 L 0 -30.671875 L 0 -42.953125 L 12.28125 -42.953125 L 12.28125 -30.671875 Z M 18.390625 -30.671875 "/></g></g></g><g fill="#c67de0" fill-opacity="1"><g transform="translate(468.181122, 75.141933)"><g><path d="M 12.28125 -6.140625 L 36.8125 -6.140625 L 36.8125 0 L 0 0 L 0 -42.953125 L 36.8125 -42.953125 L 36.8125 -36.8125 L 12.28125 -36.8125 L 12.28125 -24.53125 L 30.671875 -24.53125 L 30.671875 -18.390625 L 12.28125 -18.390625 Z M 12.28125 -6.140625 "/></g></g></g><g fill="#ff00ff" fill-opacity="1"><g transform="translate(24.318577, 123.945541)"><g><path d="M 7.09375 -24.828125 L 14.203125 -24.828125 L 14.203125 -17.734375 L 17.734375 -17.734375 L 17.734375 -7.09375 L 21.28125 -7.09375 L 21.28125 0 L 17.734375 0 L 17.734375 -7.09375 L 3.546875 -7.09375 L 3.546875 -17.734375 L 7.09375 -17.734375 Z M 14.203125 -10.65625 L 14.203125 -17.703125 L 7.09375 -17.703125 L 7.09375 -10.65625 Z M 0 0 L 0 -7.09375 L 3.546875 -7.09375 L 3.546875 0 Z M 0 0 "/></g></g></g><g fill="#ff00ff" fill-opacity="1"><g transform="translate(52.681862, 123.945541)"><g/></g></g><g fill="#ff00ff" fill-opacity="1"><g transform="translate(63.313764, 123.945541)"><g><path d="M 3.546875 0 L 0 0 L 0 -24.828125 L 17.734375 -24.828125 L 17.734375 -21.28125 L 3.546875 -21.28125 L 3.546875 -14.1875 L 14.1875 -14.1875 L 14.1875 -10.640625 L 3.546875 -10.640625 Z M 3.546875 0 "/></g></g></g><g fill="#ff00ff" fill-opacity="1"><g transform="translate(88.144625, 123.945541)"><g><path d="M 3.546875 -3.546875 L 0 -3.546875 L 0 -24.828125 L 3.546875 -24.828125 Z M 21.28125 -24.828125 L 21.28125 -3.546875 L 17.734375 -3.546875 L 17.734375 -24.828125 Z M 3.546875 -3.546875 L 17.734375 -3.546875 L 17.734375 0 L 3.546875 0 Z M 3.546875 -3.546875 "/></g></g></g><g fill="#ff00ff" fill-opacity="1"><g transform="translate(116.507909, 123.945541)"><g><path d="M 14.1875 -3.546875 L 14.1875 0 L 0 0 L 0 -24.828125 L 3.515625 -24.828125 L 3.515625 -3.546875 Z M 14.1875 -3.546875 "/></g></g></g><g fill="#ff00ff" fill-opacity="1"><g transform="translate(137.789031, 123.945541)"><g><path d="M 14.1875 -3.546875 L 14.1875 0 L 0 0 L 0 -24.828125 L 3.515625 -24.828125 L 3.515625 -3.546875 Z M 14.1875 -3.546875 "/></g></g></g><g fill="#ff00ff" fill-opacity="1"><g transform="translate(159.070152, 123.945541)"><g><path d="M 3.546875 -14.1875 L 14.1875 -14.1875 L 14.1875 -10.640625 L 17.734375 -10.640625 L 17.734375 -3.546875 L 14.1875 -3.546875 L 14.1875 -10.640625 L 3.546875 -10.640625 Z M 3.546875 -24.828125 L 14.1875 -24.828125 L 14.1875 -21.28125 L 17.734375 -21.28125 L 17.734375 -17.734375 L 14.1875 -17.734375 L 14.1875 -21.28125 L 3.546875 -21.28125 Z M 3.546875 -3.546875 L 14.1875 -3.546875 L 14.1875 0 L 3.546875 0 Z M 3.546875 -14.1875 L 0 -14.1875 L 0 -21.28125 L 3.546875 -21.28125 Z M 3.546875 -3.546875 L 0 -3.546875 L 0 -7.09375 L 3.546875 -7.09375 Z M 3.546875 -3.546875 "/></g></g></g><g fill="#ff00ff" fill-opacity="1"><g transform="translate(183.901013, 123.945541)"><g><path d="M 0 -24.828125 L 17.734375 -24.828125 L 17.734375 -21.28125 L 10.65625 -21.28125 L 10.65625 0 L 7.09375 0 L 7.09375 -21.28125 L 0 -21.28125 Z M 0 -24.828125 "/></g></g></g><g fill="#ff00ff" fill-opacity="1"><g transform="translate(208.731873, 123.945541)"><g><path d="M 7.09375 -24.828125 L 14.203125 -24.828125 L 14.203125 -17.734375 L 17.734375 -17.734375 L 17.734375 -7.09375 L 21.28125 -7.09375 L 21.28125 0 L 17.734375 0 L 17.734375 -7.09375 L 3.546875 -7.09375 L 3.546875 -17.734375 L 7.09375 -17.734375 Z M 14.203125 -10.65625 L 14.203125 -17.703125 L 7.09375 -17.703125 L 7.09375 -10.65625 Z M 0 0 L 0 -7.09375 L 3.546875 -7.09375 L 3.546875 0 Z M 0 0 "/></g></g></g><g fill="#ff00ff" fill-opacity="1"><g transform="translate(237.095158, 123.945541)"><g><path d="M 21.28125 -21.28125 L 21.28125 -17.734375 L 17.734375 -17.734375 L 17.734375 -21.28125 L 7.09375 -21.28125 L 7.09375 -24.828125 L 17.734375 -24.828125 L 17.734375 -21.28125 Z M 7.09375 -7.0625 L 7.09375 -3.546875 L 17.734375 -3.546875 L 17.734375 0 L 7.09375 0 L 7.09375 -3.546875 L 3.546875 -3.546875 L 3.546875 -7.0625 Z M 3.546875 -17.734375 L 3.546875 -7.09375 L 0 -7.09375 L 0 -17.734375 Z M 17.734375 -3.546875 L 17.734375 -7.09375 L 21.28125 -7.09375 L 21.28125 -3.546875 Z M 7.09375 -17.765625 L 3.546875 -17.765625 L 3.546875 -21.28125 L 7.09375 -21.28125 Z M 7.09375 -17.765625 "/></g></g></g><g fill="#ff00ff" fill-opacity="1"><g transform="translate(265.458442, 123.945541)"><g><path d="M 3.546875 0 L 0 0 L 0 -24.828125 L 3.546875 -24.828125 L 3.546875 -14.1875 L 7.09375 -14.1875 L 7.09375 -17.734375 L 10.65625 -17.734375 L 10.65625 -10.640625 L 14.1875 -10.640625 L 14.1875 -7.09375 L 17.734375 -7.09375 L 17.734375 0 L 14.1875 0 L 14.1875 -7.09375 L 10.65625 -7.09375 L 10.65625 -10.640625 L 3.546875 -10.640625 Z M 14.1875 -21.28125 L 14.1875 -24.828125 L 17.734375 -24.828125 L 17.734375 -21.28125 Z M 10.640625 -21.28125 L 14.1875 -21.28125 L 14.1875 -17.734375 L 10.640625 -17.734375 Z M 10.640625 -21.28125 "/></g></g></g><g fill="#ff00ff" fill-opacity="1"><g transform="translate(290.289303, 123.945541)"><g/></g></g><g fill="#ff00ff" fill-opacity="1"><g transform="translate(300.921205, 123.945541)"><g><path d="M 14.1875 -3.546875 L 14.1875 0 L 0 0 L 0 -24.828125 L 14.1875 -24.828125 L 14.1875 -21.28125 L 17.734375 -21.28125 L 17.734375 -17.734375 L 21.28125 -17.734375 L 21.28125 -7.09375 L 17.734375 -7.09375 L 17.734375 -3.546875 Z M 14.15625 -21.28125 L 3.546875 -21.28125 L 3.546875 -3.546875 L 14.15625 -3.546875 L 14.15625 -7.09375 L 17.703125 -7.09375 L 17.703125 -17.734375 L 14.15625 -17.734375 Z M 14.15625 -21.28125 "/></g></g></g><g fill="#ff00ff" fill-opacity="1"><g transform="translate(329.28449, 123.945541)"><g><path d="M 3.546875 -3.546875 L 17.734375 -3.546875 L 17.734375 0 L 0 0 L 0 -24.828125 L 17.734375 -24.828125 L 17.734375 -21.28125 L 3.546875 -21.28125 L 3.546875 -14.1875 L 14.1875 -14.1875 L 14.1875 -10.640625 L 3.546875 -10.640625 Z M 3.546875 -3.546875 "/></g></g></g><g fill="#ff00ff" fill-opacity="1"><g transform="translate(354.115351, 123.945541)"><g><path d="M 7.09375 -17.734375 L 7.09375 -7.09375 L 14.203125 -7.09375 L 14.203125 0 L 7.09375 0 L 7.09375 -7.09375 L 3.546875 -7.09375 L 3.546875 -17.734375 L 0 -17.734375 L 0 -24.828125 L 3.546875 -24.828125 L 3.546875 -17.734375 Z M 14.1875 -7.09375 L 14.1875 -17.734375 L 17.734375 -17.734375 L 17.734375 -7.09375 Z M 17.734375 -24.828125 L 21.28125 -24.828125 L 21.28125 -17.734375 L 17.734375 -17.734375 Z M 17.734375 -24.828125 "/></g></g></g><g fill="#ff00ff" fill-opacity="1"><g transform="translate(382.478635, 123.945541)"><g><path d="M 3.546875 -3.546875 L 17.734375 -3.546875 L 17.734375 0 L 0 0 L 0 -24.828125 L 17.734375 -24.828125 L 17.734375 -21.28125 L 3.546875 -21.28125 L 3.546875 -14.1875 L 14.1875 -14.1875 L 14.1875 -10.640625 L 3.546875 -10.640625 Z M 3.546875 -3.546875 "/></g></g></g><g fill="#ff00ff" fill-opacity="1"><g transform="translate(407.309519, 123.945541)"><g><path d="M 14.1875 -3.546875 L 14.1875 0 L 0 0 L 0 -24.828125 L 3.515625 -24.828125 L 3.515625 -3.546875 Z M 14.1875 -3.546875 "/></g></g></g><g fill="#ff00ff" fill-opacity="1"><g transform="translate(428.590628, 123.945541)"><g><path d="M 3.546875 -7.09375 L 0 -7.09375 L 0 -17.734375 L 3.546875 -17.734375 L 3.546875 -21.28125 L 7.09375 -21.28125 L 7.09375 -24.828125 L 17.734375 -24.828125 L 17.734375 -21.28125 L 21.28125 -21.28125 L 21.28125 -17.734375 L 24.828125 -17.734375 L 24.828125 -7.09375 L 21.28125 -7.09375 L 21.28125 -3.546875 L 17.734375 -3.546875 L 17.734375 0 L 7.09375 0 L 7.09375 -3.546875 L 3.546875 -3.546875 Z M 7.09375 -3.578125 L 17.734375 -3.578125 L 17.734375 -7.09375 L 21.25 -7.09375 L 21.25 -17.734375 L 17.734375 -17.734375 L 17.734375 -21.25 L 7.09375 -21.25 L 7.09375 -17.734375 L 3.578125 -17.734375 L 3.578125 -7.09375 L 7.09375 -7.09375 Z M 7.09375 -3.578125 "/></g></g></g><g fill="#ff00ff" fill-opacity="1"><g transform="translate(460.503664, 123.945541)"><g><path d="M 14.1875 -14.1875 L 14.1875 -10.640625 L 3.546875 -10.640625 L 3.546875 0 L 0 0 L 0 -24.828125 L 14.1875 -24.828125 L 14.1875 -21.28125 L 17.734375 -21.28125 L 17.734375 -14.1875 Z M 3.546875 -14.1875 L 14.15625 -14.1875 L 14.15625 -21.28125 L 3.546875 -21.28125 Z M 3.546875 -14.1875 "/></g></g></g><g fill="#ff00ff" fill-opacity="1"><g transform="translate(485.334502, 123.945541)"><g><path d="M 3.546875 -3.546875 L 17.734375 -3.546875 L 17.734375 0 L 0 0 L 0 -24.828125 L 17.734375 -24.828125 L 17.734375 -21.28125 L 3.546875 -21.28125 L 3.546875 -14.1875 L 14.1875 -14.1875 L 14.1875 -10.640625 L 3.546875 -10.640625 Z M 3.546875 -3.546875 "/></g></g></g><g fill="#ff00ff" fill-opacity="1"><g transform="translate(510.16534, 123.945541)"><g><path d="M 3.546875 -10.640625 L 3.546875 0 L 0 0 L 0 -24.828125 L 14.1875 -24.828125 L 14.1875 -21.28125 L 17.734375 -21.28125 L 17.734375 -14.1875 L 14.1875 -14.1875 L 14.1875 -10.640625 Z M 3.546875 -14.1875 L 14.15625 -14.1875 L 14.15625 -21.28125 L 3.546875 -21.28125 Z M 17.734375 -10.640625 L 17.734375 0 L 14.1875 0 L 14.1875 -10.640625 Z M 17.734375 -10.640625 "/></g></g></g><g fill="#00ffff" fill-opacity="1"><g transform="translate(22.988308, 123.945541)"><g><path d="M 7.09375 -24.828125 L 14.203125 -24.828125 L 14.203125 -17.734375 L 17.734375 -17.734375 L 17.734375 -7.09375 L 21.28125 -7.09375 L 21.28125 0 L 17.734375 0 L 17.734375 -7.09375 L 3.546875 -7.09375 L 3.546875 -17.734375 L 7.09375 -17.734375 Z M 14.203125 -10.65625 L 14.203125 -17.703125 L 7.09375 -17.703125 L 7.09375 -10.65625 Z M 0 0 L 0 -7.09375 L 3.546875 -7.09375 L 3.546875 0 Z M 0 0 "/></g></g></g><g fill="#00ffff" fill-opacity="1"><g transform="translate(51.351593, 123.945541)"><g/></g></g><g fill="#00ffff" fill-opacity="1"><g transform="translate(61.983495, 123.945541)"><g><path d="M 3.546875 0 L 0 0 L 0 -24.828125 L 17.734375 -24.828125 L 17.734375 -21.28125 L 3.546875 -21.28125 L 3.546875 -14.1875 L 14.1875 -14.1875 L 14.1875 -10.640625 L 3.546875 -10.640625 Z M 3.546875 0 "/></g></g></g><g fill="#00ffff" fill-opacity="1"><g transform="translate(86.814356, 123.945541)"><g><path d="M 3.546875 -3.546875 L 0 -3.546875 L 0 -24.828125 L 3.546875 -24.828125 Z M 21.28125 -24.828125 L 21.28125 -3.546875 L 17.734375 -3.546875 L 17.734375 -24.828125 Z M 3.546875 -3.546875 L 17.734375 -3.546875 L 17.734375 0 L 3.546875 0 Z M 3.546875 -3.546875 "/></g></g></g><g fill="#00ffff" fill-opacity="1"><g transform="translate(115.177641, 123.945541)"><g><path d="M 14.1875 -3.546875 L 14.1875 0 L 0 0 L 0 -24.828125 L 3.515625 -24.828125 L 3.515625 -3.546875 Z M 14.1875 -3.546875 "/></g></g></g><g fill="#00ffff" fill-opacity="1"><g transform="translate(136.458762, 123.945541)"><g><path d="M 14.1875 -3.546875 L 14.1875 0 L 0 0 L 0 -24.828125 L 3.515625 -24.828125 L 3.515625 -3.546875 Z M 14.1875 -3.546875 "/></g></g></g><g fill="#00ffff" fill-opacity="1"><g transform="translate(157.739883, 123.945541)"><g><path d="M 3.546875 -14.1875 L 14.1875 -14.1875 L 14.1875 -10.640625 L 17.734375 -10.640625 L 17.734375 -3.546875 L 14.1875 -3.546875 L 14.1875 -10.640625 L 3.546875 -10.640625 Z M 3.546875 -24.828125 L 14.1875 -24.828125 L 14.1875 -21.28125 L 17.734375 -21.28125 L 17.734375 -17.734375 L 14.1875 -17.734375 L 14.1875 -21.28125 L 3.546875 -21.28125 Z M 3.546875 -3.546875 L 14.1875 -3.546875 L 14.1875 0 L 3.546875 0 Z M 3.546875 -14.1875 L 0 -14.1875 L 0 -21.28125 L 3.546875 -21.28125 Z M 3.546875 -3.546875 L 0 -3.546875 L 0 -7.09375 L 3.546875 -7.09375 Z M 3.546875 -3.546875 "/></g></g></g><g fill="#00ffff" fill-opacity="1"><g transform="translate(182.570744, 123.945541)"><g><path d="M 0 -24.828125 L 17.734375 -24.828125 L 17.734375 -21.28125 L 10.65625 -21.28125 L 10.65625 0 L 7.09375 0 L 7.09375 -21.28125 L 0 -21.28125 Z M 0 -24.828125 "/></g></g></g><g fill="#00ffff" fill-opacity="1"><g transform="translate(207.401604, 123.945541)"><g><path d="M 7.09375 -24.828125 L 14.203125 -24.828125 L 14.203125 -17.734375 L 17.734375 -17.734375 L 17.734375 -7.09375 L 21.28125 -7.09375 L 21.28125 0 L 17.734375 0 L 17.734375 -7.09375 L 3.546875 -7.09375 L 3.546875 -17.734375 L 7.09375 -17.734375 Z M 14.203125 -10.65625 L 14.203125 -17.703125 L 7.09375 -17.703125 L 7.09375 -10.65625 Z M 0 0 L 0 -7.09375 L 3.546875 -7.09375 L 3.546875 0 Z M 0 0 "/></g></g></g><g fill="#00ffff" fill-opacity="1"><g transform="translate(235.764889, 123.945541)"><g><path d="M 21.28125 -21.28125 L 21.28125 -17.734375 L 17.734375 -17.734375 L 17.734375 -21.28125 L 7.09375 -21.28125 L 7.09375 -24.828125 L 17.734375 -24.828125 L 17.734375 -21.28125 Z M 7.09375 -7.0625 L 7.09375 -3.546875 L 17.734375 -3.546875 L 17.734375 0 L 7.09375 0 L 7.09375 -3.546875 L 3.546875 -3.546875 L 3.546875 -7.0625 Z M 3.546875 -17.734375 L 3.546875 -7.09375 L 0 -7.09375 L 0 -17.734375 Z M 17.734375 -3.546875 L 17.734375 -7.09375 L 21.28125 -7.09375 L 21.28125 -3.546875 Z M 7.09375 -17.765625 L 3.546875 -17.765625 L 3.546875 -21.28125 L 7.09375 -21.28125 Z M 7.09375 -17.765625 "/></g></g></g><g fill="#00ffff" fill-opacity="1"><g transform="translate(264.128174, 123.945541)"><g><path d="M 3.546875 0 L 0 0 L 0 -24.828125 L 3.546875 -24.828125 L 3.546875 -14.1875 L 7.09375 -14.1875 L 7.09375 -17.734375 L 10.65625 -17.734375 L 10.65625 -10.640625 L 14.1875 -10.640625 L 14.1875 -7.09375 L 17.734375 -7.09375 L 17.734375 0 L 14.1875 0 L 14.1875 -7.09375 L 10.65625 -7.09375 L 10.65625 -10.640625 L 3.546875 -10.640625 Z M 14.1875 -21.28125 L 14.1875 -24.828125 L 17.734375 -24.828125 L 17.734375 -21.28125 Z M 10.640625 -21.28125 L 14.1875 -21.28125 L 14.1875 -17.734375 L 10.640625 -17.734375 Z M 10.640625 -21.28125 "/></g></g></g><g fill="#00ffff" fill-opacity="1"><g transform="translate(288.959034, 123.945541)"><g/></g></g><g fill="#00ffff" fill-opacity="1"><g transform="translate(299.590937, 123.945541)"><g><path d="M 14.1875 -3.546875 L 14.1875 0 L 0 0 L 0 -24.828125 L 14.1875 -24.828125 L 14.1875 -21.28125 L 17.734375 -21.28125 L 17.734375 -17.734375 L 21.28125 -17.734375 L 21.28125 -7.09375 L 17.734375 -7.09375 L 17.734375 -3.546875 Z M 14.15625 -21.28125 L 3.546875 -21.28125 L 3.546875 -3.546875 L 14.15625 -3.546875 L 14.15625 -7.09375 L 17.703125 -7.09375 L 17.703125 -17.734375 L 14.15625 -17.734375 Z M 14.15625 -21.28125 "/></g></g></g><g fill="#00ffff" fill-opacity="1"><g transform="translate(327.954221, 123.945541)"><g><path d="M 3.546875 -3.546875 L 17.734375 -3.546875 L 17.734375 0 L 0 0 L 0 -24.828125 L 17.734375 -24.828125 L 17.734375 -21.28125 L 3.546875 -21.28125 L 3.546875 -14.1875 L 14.1875 -14.1875 L 14.1875 -10.640625 L 3.546875 -10.640625 Z M 3.546875 -3.546875 "/></g></g></g><g fill="#00ffff" fill-opacity="1"><g transform="translate(352.785082, 123.945541)"><g><path d="M 7.09375 -17.734375 L 7.09375 -7.09375 L 14.203125 -7.09375 L 14.203125 0 L 7.09375 0 L 7.09375 -7.09375 L 3.546875 -7.09375 L 3.546875 -17.734375 L 0 -17.734375 L 0 -24.828125 L 3.546875 -24.828125 L 3.546875 -17.734375 Z M 14.1875 -7.09375 L 14.1875 -17.734375 L 17.734375 -17.734375 L 17.734375 -7.09375 Z M 17.734375 -24.828125 L 21.28125 -24.828125 L 21.28125 -17.734375 L 17.734375 -17.734375 Z M 17.734375 -24.828125 "/></g></g></g><g fill="#00ffff" fill-opacity="1"><g transform="translate(381.148366, 123.945541)"><g><path d="M 3.546875 -3.546875 L 17.734375 -3.546875 L 17.734375 0 L 0 0 L 0 -24.828125 L 17.734375 -24.828125 L 17.734375 -21.28125 L 3.546875 -21.28125 L 3.546875 -14.1875 L 14.1875 -14.1875 L 14.1875 -10.640625 L 3.546875 -10.640625 Z M 3.546875 -3.546875 "/></g></g></g><g fill="#00ffff" fill-opacity="1"><g transform="translate(405.97925, 123.945541)"><g><path d="M 14.1875 -3.546875 L 14.1875 0 L 0 0 L 0 -24.828125 L 3.515625 -24.828125 L 3.515625 -3.546875 Z M 14.1875 -3.546875 "/></g></g></g><g fill="#00ffff" fill-opacity="1"><g transform="translate(427.260359, 123.945541)"><g><path d="M 3.546875 -7.09375 L 0 -7.09375 L 0 -17.734375 L 3.546875 -17.734375 L 3.546875 -21.28125 L 7.09375 -21.28125 L 7.09375 -24.828125 L 17.734375 -24.828125 L 17.734375 -21.28125 L 21.28125 -21.28125 L 21.28125 -17.734375 L 24.828125 -17.734375 L 24.828125 -7.09375 L 21.28125 -7.09375 L 21.28125 -3.546875 L 17.734375 -3.546875 L 17.734375 0 L 7.09375 0 L 7.09375 -3.546875 L 3.546875 -3.546875 Z M 7.09375 -3.578125 L 17.734375 -3.578125 L 17.734375 -7.09375 L 21.25 -7.09375 L 21.25 -17.734375 L 17.734375 -17.734375 L 17.734375 -21.25 L 7.09375 -21.25 L 7.09375 -17.734375 L 3.578125 -17.734375 L 3.578125 -7.09375 L 7.09375 -7.09375 Z M 7.09375 -3.578125 "/></g></g></g><g fill="#00ffff" fill-opacity="1"><g transform="translate(459.173395, 123.945541)"><g><path d="M 14.1875 -14.1875 L 14.1875 -10.640625 L 3.546875 -10.640625 L 3.546875 0 L 0 0 L 0 -24.828125 L 14.1875 -24.828125 L 14.1875 -21.28125 L 17.734375 -21.28125 L 17.734375 -14.1875 Z M 3.546875 -14.1875 L 14.15625 -14.1875 L 14.15625 -21.28125 L 3.546875 -21.28125 Z M 3.546875 -14.1875 "/></g></g></g><g fill="#00ffff" fill-opacity="1"><g transform="translate(484.004233, 123.945541)"><g><path d="M 3.546875 -3.546875 L 17.734375 -3.546875 L 17.734375 0 L 0 0 L 0 -24.828125 L 17.734375 -24.828125 L 17.734375 -21.28125 L 3.546875 -21.28125 L 3.546875 -14.1875 L 14.1875 -14.1875 L 14.1875 -10.640625 L 3.546875 -10.640625 Z M 3.546875 -3.546875 "/></g></g></g><g fill="#00ffff" fill-opacity="1"><g transform="translate(508.835071, 123.945541)"><g><path d="M 3.546875 -10.640625 L 3.546875 0 L 0 0 L 0 -24.828125 L 14.1875 -24.828125 L 14.1875 -21.28125 L 17.734375 -21.28125 L 17.734375 -14.1875 L 14.1875 -14.1875 L 14.1875 -10.640625 Z M 3.546875 -14.1875 L 14.15625 -14.1875 L 14.15625 -21.28125 L 3.546875 -21.28125 Z M 17.734375 -10.640625 L 17.734375 0 L 14.1875 0 L 14.1875 -10.640625 Z M 17.734375 -10.640625 "/></g></g></g><g fill="#7edaf2" fill-opacity="1"><g transform="translate(23.653442, 123.945541)"><g><path d="M 7.09375 -24.828125 L 14.203125 -24.828125 L 14.203125 -17.734375 L 17.734375 -17.734375 L 17.734375 -7.09375 L 21.28125 -7.09375 L 21.28125 0 L 17.734375 0 L 17.734375 -7.09375 L 3.546875 -7.09375 L 3.546875 -17.734375 L 7.09375 -17.734375 Z M 14.203125 -10.65625 L 14.203125 -17.703125 L 7.09375 -17.703125 L 7.09375 -10.65625 Z M 0 0 L 0 -7.09375 L 3.546875 -7.09375 L 3.546875 0 Z M 0 0 "/></g></g></g><g fill="#7edaf2" fill-opacity="1"><g transform="translate(52.016727, 123.945541)"><g/></g></g><g fill="#7edaf2" fill-opacity="1"><g transform="translate(62.64863, 123.945541)"><g><path d="M 3.546875 0 L 0 0 L 0 -24.828125 L 17.734375 -24.828125 L 17.734375 -21.28125 L 3.546875 -21.28125 L 3.546875 -14.1875 L 14.1875 -14.1875 L 14.1875 -10.640625 L 3.546875 -10.640625 Z M 3.546875 0 "/></g></g></g><g fill="#7edaf2" fill-opacity="1"><g transform="translate(87.47949, 123.945541)"><g><path d="M 3.546875 -3.546875 L 0 -3.546875 L 0 -24.828125 L 3.546875 -24.828125 Z M 21.28125 -24.828125 L 21.28125 -3.546875 L 17.734375 -3.546875 L 17.734375 -24.828125 Z M 3.546875 -3.546875 L 17.734375 -3.546875 L 17.734375 0 L 3.546875 0 Z M 3.546875 -3.546875 "/></g></g></g><g fill="#7edaf2" fill-opacity="1"><g transform="translate(115.842775, 123.945541)"><g><path d="M 14.1875 -3.546875 L 14.1875 0 L 0 0 L 0 -24.828125 L 3.515625 -24.828125 L 3.515625 -3.546875 Z M 14.1875 -3.546875 "/></g></g></g><g fill="#7edaf2" fill-opacity="1"><g transform="translate(137.123896, 123.945541)"><g><path d="M 14.1875 -3.546875 L 14.1875 0 L 0 0 L 0 -24.828125 L 3.515625 -24.828125 L 3.515625 -3.546875 Z M 14.1875 -3.546875 "/></g></g></g><g fill="#7edaf2" fill-opacity="1"><g transform="translate(158.405018, 123.945541)"><g><path d="M 3.546875 -14.1875 L 14.1875 -14.1875 L 14.1875 -10.640625 L 17.734375 -10.640625 L 17.734375 -3.546875 L 14.1875 -3.546875 L 14.1875 -10.640625 L 3.546875 -10.640625 Z M 3.546875 -24.828125 L 14.1875 -24.828125 L 14.1875 -21.28125 L 17.734375 -21.28125 L 17.734375 -17.734375 L 14.1875 -17.734375 L 14.1875 -21.28125 L 3.546875 -21.28125 Z M 3.546875 -3.546875 L 14.1875 -3.546875 L 14.1875 0 L 3.546875 0 Z M 3.546875 -14.1875 L 0 -14.1875 L 0 -21.28125 L 3.546875 -21.28125 Z M 3.546875 -3.546875 L 0 -3.546875 L 0 -7.09375 L 3.546875 -7.09375 Z M 3.546875 -3.546875 "/></g></g></g><g fill="#7edaf2" fill-opacity="1"><g transform="translate(183.235878, 123.945541)"><g><path d="M 0 -24.828125 L 17.734375 -24.828125 L 17.734375 -21.28125 L 10.65625 -21.28125 L 10.65625 0 L 7.09375 0 L 7.09375 -21.28125 L 0 -21.28125 Z M 0 -24.828125 "/></g></g></g><g fill="#7edaf2" fill-opacity="1"><g transform="translate(208.066738, 123.945541)"><g><path d="M 7.09375 -24.828125 L 14.203125 -24.828125 L 14.203125 -17.734375 L 17.734375 -17.734375 L 17.734375 -7.09375 L 21.28125 -7.09375 L 21.28125 0 L 17.734375 0 L 17.734375 -7.09375 L 3.546875 -7.09375 L 3.546875 -17.734375 L 7.09375 -17.734375 Z M 14.203125 -10.65625 L 14.203125 -17.703125 L 7.09375 -17.703125 L 7.09375 -10.65625 Z M 0 0 L 0 -7.09375 L 3.546875 -7.09375 L 3.546875 0 Z M 0 0 "/></g></g></g><g fill="#7edaf2" fill-opacity="1"><g transform="translate(236.430023, 123.945541)"><g><path d="M 21.28125 -21.28125 L 21.28125 -17.734375 L 17.734375 -17.734375 L 17.734375 -21.28125 L 7.09375 -21.28125 L 7.09375 -24.828125 L 17.734375 -24.828125 L 17.734375 -21.28125 Z M 7.09375 -7.0625 L 7.09375 -3.546875 L 17.734375 -3.546875 L 17.734375 0 L 7.09375 0 L 7.09375 -3.546875 L 3.546875 -3.546875 L 3.546875 -7.0625 Z M 3.546875 -17.734375 L 3.546875 -7.09375 L 0 -7.09375 L 0 -17.734375 Z M 17.734375 -3.546875 L 17.734375 -7.09375 L 21.28125 -7.09375 L 21.28125 -3.546875 Z M 7.09375 -17.765625 L 3.546875 -17.765625 L 3.546875 -21.28125 L 7.09375 -21.28125 Z M 7.09375 -17.765625 "/></g></g></g><g fill="#7edaf2" fill-opacity="1"><g transform="translate(264.793308, 123.945541)"><g><path d="M 3.546875 0 L 0 0 L 0 -24.828125 L 3.546875 -24.828125 L 3.546875 -14.1875 L 7.09375 -14.1875 L 7.09375 -17.734375 L 10.65625 -17.734375 L 10.65625 -10.640625 L 14.1875 -10.640625 L 14.1875 -7.09375 L 17.734375 -7.09375 L 17.734375 0 L 14.1875 0 L 14.1875 -7.09375 L 10.65625 -7.09375 L 10.65625 -10.640625 L 3.546875 -10.640625 Z M 14.1875 -21.28125 L 14.1875 -24.828125 L 17.734375 -24.828125 L 17.734375 -21.28125 Z M 10.640625 -21.28125 L 14.1875 -21.28125 L 14.1875 -17.734375 L 10.640625 -17.734375 Z M 10.640625 -21.28125 "/></g></g></g><g fill="#7edaf2" fill-opacity="1"><g transform="translate(289.624168, 123.945541)"><g/></g></g><g fill="#7edaf2" fill-opacity="1"><g transform="translate(300.256071, 123.945541)"><g><path d="M 14.1875 -3.546875 L 14.1875 0 L 0 0 L 0 -24.828125 L 14.1875 -24.828125 L 14.1875 -21.28125 L 17.734375 -21.28125 L 17.734375 -17.734375 L 21.28125 -17.734375 L 21.28125 -7.09375 L 17.734375 -7.09375 L 17.734375 -3.546875 Z M 14.15625 -21.28125 L 3.546875 -21.28125 L 3.546875 -3.546875 L 14.15625 -3.546875 L 14.15625 -7.09375 L 17.703125 -7.09375 L 17.703125 -17.734375 L 14.15625 -17.734375 Z M 14.15625 -21.28125 "/></g></g></g><g fill="#7edaf2" fill-opacity="1"><g transform="translate(328.619356, 123.945541)"><g><path d="M 3.546875 -3.546875 L 17.734375 -3.546875 L 17.734375 0 L 0 0 L 0 -24.828125 L 17.734375 -24.828125 L 17.734375 -21.28125 L 3.546875 -21.28125 L 3.546875 -14.1875 L 14.1875 -14.1875 L 14.1875 -10.640625 L 3.546875 -10.640625 Z M 3.546875 -3.546875 "/></g></g></g><g fill="#7edaf2" fill-opacity="1"><g transform="translate(353.450216, 123.945541)"><g><path d="M 7.09375 -17.734375 L 7.09375 -7.09375 L 14.203125 -7.09375 L 14.203125 0 L 7.09375 0 L 7.09375 -7.09375 L 3.546875 -7.09375 L 3.546875 -17.734375 L 0 -17.734375 L 0 -24.828125 L 3.546875 -24.828125 L 3.546875 -17.734375 Z M 14.1875 -7.09375 L 14.1875 -17.734375 L 17.734375 -17.734375 L 17.734375 -7.09375 Z M 17.734375 -24.828125 L 21.28125 -24.828125 L 21.28125 -17.734375 L 17.734375 -17.734375 Z M 17.734375 -24.828125 "/></g></g></g><g fill="#7edaf2" fill-opacity="1"><g transform="translate(381.813501, 123.945541)"><g><path d="M 3.546875 -3.546875 L 17.734375 -3.546875 L 17.734375 0 L 0 0 L 0 -24.828125 L 17.734375 -24.828125 L 17.734375 -21.28125 L 3.546875 -21.28125 L 3.546875 -14.1875 L 14.1875 -14.1875 L 14.1875 -10.640625 L 3.546875 -10.640625 Z M 3.546875 -3.546875 "/></g></g></g><g fill="#7edaf2" fill-opacity="1"><g transform="translate(406.644384, 123.945541)"><g><path d="M 14.1875 -3.546875 L 14.1875 0 L 0 0 L 0 -24.828125 L 3.515625 -24.828125 L 3.515625 -3.546875 Z M 14.1875 -3.546875 "/></g></g></g><g fill="#7edaf2" fill-opacity="1"><g transform="translate(427.925494, 123.945541)"><g><path d="M 3.546875 -7.09375 L 0 -7.09375 L 0 -17.734375 L 3.546875 -17.734375 L 3.546875 -21.28125 L 7.09375 -21.28125 L 7.09375 -24.828125 L 17.734375 -24.828125 L 17.734375 -21.28125 L 21.28125 -21.28125 L 21.28125 -17.734375 L 24.828125 -17.734375 L 24.828125 -7.09375 L 21.28125 -7.09375 L 21.28125 -3.546875 L 17.734375 -3.546875 L 17.734375 0 L 7.09375 0 L 7.09375 -3.546875 L 3.546875 -3.546875 Z M 7.09375 -3.578125 L 17.734375 -3.578125 L 17.734375 -7.09375 L 21.25 -7.09375 L 21.25 -17.734375 L 17.734375 -17.734375 L 17.734375 -21.25 L 7.09375 -21.25 L 7.09375 -17.734375 L 3.578125 -17.734375 L 3.578125 -7.09375 L 7.09375 -7.09375 Z M 7.09375 -3.578125 "/></g></g></g><g fill="#7edaf2" fill-opacity="1"><g transform="translate(459.838529, 123.945541)"><g><path d="M 14.1875 -14.1875 L 14.1875 -10.640625 L 3.546875 -10.640625 L 3.546875 0 L 0 0 L 0 -24.828125 L 14.1875 -24.828125 L 14.1875 -21.28125 L 17.734375 -21.28125 L 17.734375 -14.1875 Z M 3.546875 -14.1875 L 14.15625 -14.1875 L 14.15625 -21.28125 L 3.546875 -21.28125 Z M 3.546875 -14.1875 "/></g></g></g><g fill="#7edaf2" fill-opacity="1"><g transform="translate(484.669367, 123.945541)"><g><path d="M 3.546875 -3.546875 L 17.734375 -3.546875 L 17.734375 0 L 0 0 L 0 -24.828125 L 17.734375 -24.828125 L 17.734375 -21.28125 L 3.546875 -21.28125 L 3.546875 -14.1875 L 14.1875 -14.1875 L 14.1875 -10.640625 L 3.546875 -10.640625 Z M 3.546875 -3.546875 "/></g></g></g><g fill="#7edaf2" fill-opacity="1"><g transform="translate(509.500205, 123.945541)"><g><path d="M 3.546875 -10.640625 L 3.546875 0 L 0 0 L 0 -24.828125 L 14.1875 -24.828125 L 14.1875 -21.28125 L 17.734375 -21.28125 L 17.734375 -14.1875 L 14.1875 -14.1875 L 14.1875 -10.640625 Z M 3.546875 -14.1875 L 14.15625 -14.1875 L 14.15625 -21.28125 L 3.546875 -21.28125 Z M 17.734375 -10.640625 L 17.734375 0 L 14.1875 0 L 14.1875 -10.640625 Z M 17.734375 -10.640625 "/></g></g></g></svg>